<svg width="25" height="25" viewBox="0 0 25 25" fill="none" xmlns="http://www.w3.org/2000/svg">
<g clip-path="url(#clip0_1:199)">
<path d="M4.25 10.25V23.75H11.75V22.25H5.75V12.4019L14 17.9009L22.25 12.4019V17.75H23.75V10.25H4.25ZM7.47705 11.75H20.5229L14 16.0991L7.47705 11.75ZM22.4111 19.5342C22.4111 19.5342 21.8414 20.2532 21.1162 20.9639C20.7536 21.3192 20.3536 21.6692 19.9971 21.9102C19.6517 22.1436 19.3578 22.2337 19.2734 22.2397C19.267 22.1817 19.25 22.0939 19.25 21.875C19.25 21.5938 19.286 21.2339 19.0918 20.7969C18.8976 20.3598 18.3125 20 17.75 20C17.2195 20 16.8055 20.2029 16.3569 20.438C15.9083 20.6731 15.4542 20.9685 15.0371 21.2612C14.2028 21.8466 13.5166 22.4272 13.5166 22.4272L14.4834 23.5728C14.4834 23.5728 15.1294 23.0284 15.8984 22.4888C16.283 22.219 16.6978 21.9519 17.0542 21.7651C17.3986 21.5846 17.694 21.514 17.7266 21.5088C17.7329 21.5662 17.75 21.6553 17.75 21.875C17.75 22.1562 17.714 22.5161 17.9082 22.9531C18.1024 23.3902 18.6875 23.75 19.25 23.75C19.8666 23.75 20.3607 23.4739 20.8364 23.1523C21.3122 22.8308 21.7637 22.4308 22.1665 22.0361C22.972 21.2468 23.5889 20.4658 23.5889 20.4658L22.4111 19.5342Z" fill="#001F7E"/>
</g>
<defs>
<clipPath id="clip0_1:199">
<rect width="24" height="24" fill="white" transform="matrix(-1 0 0 1 24.881 0.790771)"/>
</clipPath>
</defs>
</svg>
