<svg width="19" height="19" viewBox="0 0 19 19" fill="none" xmlns="http://www.w3.org/2000/svg">
<path fill-rule="evenodd" clip-rule="evenodd" d="M9.49999 8.54998C10.2559 8.54998 10.9808 8.24971 11.5152 7.71523C12.0497 7.18075 12.35 6.45584 12.35 5.69998C12.35 4.94411 12.0497 4.2192 11.5152 3.68472C10.9808 3.15024 10.2559 2.84998 9.49999 2.84998C8.74412 2.84998 8.01921 3.15024 7.48474 3.68472C6.95026 4.2192 6.64999 4.94411 6.64999 5.69998C6.64999 6.45584 6.95026 7.18075 7.48474 7.71523C8.01921 8.24971 8.74412 8.54998 9.49999 8.54998ZM5.46142 17.1C4.01917 17.1 2.80427 15.8876 3.35619 14.5551C3.69039 13.7483 4.18022 13.0152 4.79773 12.3977C5.41524 11.7802 6.14833 11.2904 6.95515 10.9562C7.76196 10.622 8.6267 10.45 9.49999 10.45C10.3733 10.45 11.238 10.622 12.0448 10.9562C12.8517 11.2904 13.5847 11.7802 14.2022 12.3977C14.8198 13.0152 15.3096 13.7483 15.6438 14.5551C16.1957 15.8876 14.9808 17.1 13.5386 17.1H5.46142Z" fill="#001F7E"/>
</svg>
